<svg xmlns="http://www.w3.org/2000/svg" viewBox="0 0 420 420" role="img" aria-labelledby="title desc">
  <title id="title">粉色蝴蝶结小猫插画</title>
  <desc id="desc">原创的白色小猫和粉色蝴蝶结插画，用于表达可爱猫咪风格。</desc>
  <defs>
    <linearGradient id="fur" x1="0" x2="1" y1="0" y2="1">
      <stop offset="0" stop-color="#fffdf8"/>
      <stop offset="1" stop-color="#ffeef4"/>
    </linearGradient>
  </defs>
  <circle cx="210" cy="210" r="188" fill="#fff0f4"/>
  <path d="M112 170 82 82l84 50Z" fill="url(#fur)" stroke="#b93662" stroke-width="9" stroke-linejoin="round"/>
  <path d="M308 170 338 82l-84 50Z" fill="url(#fur)" stroke="#b93662" stroke-width="9" stroke-linejoin="round"/>
  <path d="M99 207c0-82 52-132 111-132s111 50 111 132c0 78-48 129-111 129S99 285 99 207Z" fill="url(#fur)" stroke="#b93662" stroke-width="9"/>
  <circle cx="165" cy="214" r="15" fill="#3c2430"/>
  <circle cx="255" cy="214" r="15" fill="#3c2430"/>
  <circle cx="143" cy="246" r="20" fill="#f7a6bf" opacity=".58"/>
  <circle cx="277" cy="246" r="20" fill="#f7a6bf" opacity=".58"/>
  <path d="M199 242c8 8 14 8 22 0" fill="none" stroke="#3c2430" stroke-width="7" stroke-linecap="round"/>
  <path d="M210 230v18" stroke="#3c2430" stroke-width="7" stroke-linecap="round"/>
  <g transform="translate(230 72) rotate(13)">
    <path d="M0 50C-42 16-86 22-110 62c35 25 78 21 110-12Z" fill="#f7a6bf" stroke="#b93662" stroke-width="8" stroke-linejoin="round"/>
    <path d="M28 50c42-34 86-28 110 12c-35 25-78 21-110-12Z" fill="#f7a6bf" stroke="#b93662" stroke-width="8" stroke-linejoin="round"/>
    <circle cx="14" cy="50" r="25" fill="#e95383" stroke="#b93662" stroke-width="8"/>
    <circle cx="-42" cy="46" r="7" fill="#fff" opacity=".72"/>
    <circle cx="72" cy="47" r="7" fill="#fff" opacity=".72"/>
  </g>
  <path d="M128 282c46 48 118 48 164 0" fill="none" stroke="#f7a6bf" stroke-width="13" stroke-linecap="round"/>
</svg>
