<svg xmlns="http://www.w3.org/2000/svg" viewBox="0 0 900 1125" role="img" aria-labelledby="title desc">
  <title id="title">粉色主视觉照片占位图</title>
  <desc id="desc">用于替换真实人物主视觉照片的粉色主题占位图。</desc>
  <defs>
    <linearGradient id="bg" x1="0" x2="1" y1="0" y2="1">
      <stop offset="0" stop-color="#fff3f7"/>
      <stop offset="0.48" stop-color="#ffd6e4"/>
      <stop offset="1" stop-color="#f3fffb"/>
    </linearGradient>
    <radialGradient id="halo" cx="50%" cy="38%" r="45%">
      <stop offset="0" stop-color="#fff" stop-opacity="0.95"/>
      <stop offset="1" stop-color="#fff" stop-opacity="0"/>
    </radialGradient>
  </defs>
  <rect width="900" height="1125" fill="url(#bg)"/>
  <circle cx="450" cy="360" r="320" fill="url(#halo)"/>
  <g fill="none" stroke="#e95383" stroke-width="10" stroke-linecap="round" opacity="0.55">
    <path d="M166 170c40-54 94-58 130-14"/>
    <path d="M672 174c42-54 99-55 132-8"/>
    <path d="M146 880c84 58 191 88 304 88s220-30 304-88"/>
  </g>
  <g transform="translate(235 258)">
    <circle cx="215" cy="228" r="168" fill="#fff" stroke="#b93662" stroke-width="10"/>
    <circle cx="158" cy="205" r="16" fill="#3c2430"/>
    <circle cx="272" cy="205" r="16" fill="#3c2430"/>
    <path d="M200 258c16 14 31 14 46 0" fill="none" stroke="#3c2430" stroke-width="8" stroke-linecap="round"/>
    <path d="M135 338c54 54 112 54 166 0" fill="none" stroke="#f7a6bf" stroke-width="18" stroke-linecap="round"/>
    <g transform="translate(246 42) rotate(12)">
      <path d="M0 54C-42 16-80 24-98 60c35 20 71 17 98-6Z" fill="#e95383"/>
      <path d="M26 54c42-38 80-30 98 6c-35 20-71 17-98-6Z" fill="#e95383"/>
      <circle cx="13" cy="54" r="22" fill="#b93662"/>
    </g>
  </g>
  <g fill="#fff" opacity="0.9">
    <circle cx="150" cy="710" r="18"/>
    <circle cx="772" cy="650" r="24"/>
    <circle cx="710" cy="830" r="12"/>
    <circle cx="218" cy="950" r="12"/>
  </g>
  <text x="450" y="1050" text-anchor="middle" font-family="Microsoft YaHei, Arial, sans-serif" font-size="46" font-weight="800" fill="#b93662">主视觉照片位</text>
</svg>
